<?xml version="1.0" standalone="no"?><!DOCTYPE svg PUBLIC "-//W3C//DTD SVG 1.1//EN" "http://www.w3.org/Graphics/SVG/1.1/DTD/svg11.dtd"><svg class="icon" width="200px" height="200.00px" viewBox="0 0 1024 1024" version="1.1" xmlns="http://www.w3.org/2000/svg"><path fill="#2aa515" d="M390.912 217.6H307.2a51.2 51.2 0 0 0-51.2 51.2v499.2a51.2 51.2 0 0 0 51.2 51.2h422.4a51.2 51.2 0 0 0 51.2-51.2V268.8a51.2 51.2 0 0 0-51.2-51.2h-96.512A51.2 51.2 0 0 0 588.8 192H435.2a51.2 51.2 0 0 0-44.288 25.6zM384 268.8v25.6a51.2 51.2 0 0 0 51.2 51.2h153.6a51.2 51.2 0 0 0 51.2-51.2v-25.6h89.6v499.2H307.2V268.8z m51.2 0h153.6v25.6H435.2z m76.8 755.2a512 512 0 1 1 512-512 512 512 0 0 1-512 512z m-105.216-534.528l-45.568 45.056L473.6 648.064l189.44-197.376-46.08-44.416-144.128 150.016z"  /></svg>