<?xml version="1.0" standalone="no"?><!DOCTYPE svg PUBLIC "-//W3C//DTD SVG 1.1//EN" "http://www.w3.org/Graphics/SVG/1.1/DTD/svg11.dtd"><svg class="icon" width="200px" height="200.00px" viewBox="0 0 1024 1024" version="1.1" xmlns="http://www.w3.org/2000/svg"><path d="M1003.618647 950.123942c0 26.826451-21.747453 48.576899-48.574903 48.5769H106.97092c-26.826451 0-48.578896-21.750448-48.578895-48.5769V232.600724h945.225624v717.523218z" fill="#DCD4E9" /><path d="M943.033033 1.859704H79.170196C35.535537 1.859704 0.035459 37.359781 0.035459 80.999432v863.857845c0 43.643643 35.500077 79.142723 79.134737 79.142723h863.862837c43.642645 0 79.142723-35.500077 79.142723-79.142723V80.999432c0.000998-43.63965-35.500077-79.139728-79.142723-79.139728zM79.170196 42.340952h863.862837c21.314221 0 38.661474 17.34326 38.661474 38.65848v94.928742H40.517706V80.999432c0-21.31522 17.338269-38.658479 38.65249-38.65848z m863.862837 941.178798H79.170196c-21.31522 0-38.65249-17.347253-38.65249-38.661474V216.408425h941.177799v728.449851c0 21.314221-17.348251 38.661474-38.662472 38.661474z" fill="#6156A3" /><path d="M692.415243 117.230214m-32.385598 0a32.385598 32.385598 0 1 0 64.771196 0 32.385598 32.385598 0 1 0-64.771196 0Z" fill="#6156A3" /><path d="M801.714514 117.230214m-32.383601 0a32.383601 32.383601 0 1 0 64.767203 0 32.383601 32.383601 0 1 0-64.767203 0Z" fill="#6156A3" /><path d="M943.398385 117.230214c0 17.885299-14.501297 32.385598-32.386596 32.385598-17.883303 0-32.3846-14.500299-32.384599-32.385598 0-17.884301 14.501297-32.383601 32.384599-32.383601 17.884301-0.000998 32.386596 14.499301 32.386596 32.383601z" fill="#6156A3" /><path d="M511.106606 388.957588c-125.000442 0-226.693195 101.691755-226.693196 226.693195 0 125.000442 101.692754 226.692197 226.693196 226.692197 124.999443 0 226.692197-101.691755 226.692197-226.692197 0-125.00144-101.692754-226.693195-226.692197-226.693195z" fill="#FFFFFF" /><path d="M511.106606 356.573987c-142.859787 0-259.078793 116.219006-259.078793 259.076796 0 142.850803 116.219006 259.075798 259.078793 259.075798 142.852799 0 259.077795-116.224996 259.077794-259.075798 0-142.85779-116.224996-259.076796-259.077794-259.076796z m0 485.768993c-125.000442 0-226.693195-101.691755-226.693196-226.692197 0-125.00144 101.692754-226.693195 226.693196-226.693195 124.999443 0 226.692197 101.691755 226.692197 226.693195 0 125.000442-101.692754 226.692197-226.692197 226.692197z" fill="#6156A3" /><path d="M685.577363 579.941077c-0.625891-76.111096-62.469276-137.631054-138.727112-137.631054 0.009982 0.001996 0 0.007986 0 0.007986a12.126506 12.126506 0 0 0-8.55284 3.556696c-4.746587 4.743592-4.746587 12.433961 0 17.174558a12.089572 12.089572 0 0 0 8.648671 3.553701c63.196986 0.05091 114.404223 51.289092 114.398233 114.492068h0.063887a12.05663 12.05663 0 0 0 3.546714 8.618723c4.745589 4.743592 12.439951 4.743592 17.183542 0 2.671265-2.677255 3.779301-6.278871 3.438905-9.772678z" fill="#6156A3" /></svg>