<?xml version="1.0" standalone="no"?><!DOCTYPE svg PUBLIC "-//W3C//DTD SVG 1.1//EN" "http://www.w3.org/Graphics/SVG/1.1/DTD/svg11.dtd"><svg t="1597572246410" class="icon" viewBox="0 0 1024 1024" version="1.1" xmlns="http://www.w3.org/2000/svg" p-id="1870" xmlns:xlink="http://www.w3.org/1999/xlink" width="200" height="200"><defs><style type="text/css"></style></defs><path d="M832 0H192A128 128 0 0 0 64 128v832a64 64 0 0 0 64 64h768a64 64 0 0 0 64-64V128a128 128 0 0 0-128-128z m32 928H160V128a32 32 0 0 1 32-32h640a32 32 0 0 1 32 32zM320 208a48 48 0 1 0-48 48 48 48 0 0 0 48-48z m112 48a48 48 0 1 0-48-48 48 48 0 0 0 48 48z m80 64a272 272 0 1 0 272 272 272 272 0 0 0-272-272z m-51 359.86c13.18 12.34 30.5 28.56 35.42 56.26a13.88 13.88 0 0 1-14.14 15.88h-29a14.1 14.1 0 0 1-13.66-10.12c-2.42-8.58-8.5-14.6-18.84-24.3-15.54-14.54-36.78-34.46-36.78-72.14s21.24-57.66 36.78-72.22c14-13.08 20.12-19.5 20.12-34.5s-6.18-21.44-20.12-34.5c-13.2-12.38-30.52-28.6-35.42-56.34a13.88 13.88 0 0 1 14.12-15.88h29.02a14 14 0 0 1 13.64 10.14c2.44 8.6 8.5 14.66 18.86 24.36 15.52 14.56 36.78 34.48 36.78 72.22s-21.26 57.66-36.78 72.2c-14 13.08-20.1 19.52-20.1 34.52s6.16 21.34 20.1 34.42z m142.22 0c13.18 12.34 30.5 28.56 35.42 56.26a13.88 13.88 0 0 1-14.12 15.88h-29.02a14 14 0 0 1-13.64-10.12c-2.44-8.58-8.52-14.6-18.86-24.3-15.52-14.54-36.78-34.46-36.78-72.14s21.26-57.66 36.78-72.22c14-13.08 20.1-19.5 20.1-34.5s-6.16-21.44-20.1-34.5c-13.18-12.38-30.5-28.6-35.42-56.34a13.88 13.88 0 0 1 14.12-15.88h29.02a14 14 0 0 1 13.64 10.14c2.44 8.6 8.5 14.66 18.86 24.36 15.54 14.56 36.78 34.48 36.78 72.22s-21.24 57.66-36.78 72.2c-14 13.08-20.12 19.52-20.12 34.52s6.18 21.34 20.12 34.42z" fill="#1296db" p-id="1871"></path></svg>