<?xml version="1.0" standalone="no"?><!DOCTYPE svg PUBLIC "-//W3C//DTD SVG 1.1//EN" "http://www.w3.org/Graphics/SVG/1.1/DTD/svg11.dtd"><svg t="1597572037636" class="icon" viewBox="0 0 1024 1024" version="1.1" xmlns="http://www.w3.org/2000/svg" p-id="1499" xmlns:xlink="http://www.w3.org/1999/xlink" width="200" height="200"><defs><style type="text/css"></style></defs><path d="M865.273586 0 158.627734 0c-35.722078 0-64.93129 29.209213-64.93129 64.93129L93.696444 200.912017l836.508432 0L930.204876 64.93129C930.204876 29.209213 900.995663 0 865.273586 0zM236.486075 141.210755C220.006553 141.210755 206.684784 127.888985 206.684784 111.409463c0-16.479522 13.321769-29.702612 29.801291-29.702612 16.479522 0 29.801291 13.321769 29.801291 29.702612C266.188687 127.888985 252.866917 141.210755 236.486075 141.210755zM331.021297 141.210755C314.541775 141.210755 301.220006 127.888985 301.220006 111.409463c0-16.479522 13.321769-29.702612 29.801291-29.702612 16.380842 0 29.801291 13.321769 29.801291 29.702612C360.822588 127.888985 347.402139 141.210755 331.021297 141.210755zM428.220873 141.210755c-16.380842 0-29.801291-13.321769-29.801291-29.801291 0-16.479522 13.321769-29.702612 29.801291-29.702612 16.479522 0 29.801291 13.321769 29.801291 29.702612C457.923485 127.888985 444.601715 141.210755 428.220873 141.210755zM522.756095 141.210755c-16.479522 0-29.801291-13.321769-29.801291-29.801291 0-16.479522 13.321769-29.702612 29.801291-29.702612C539.235617 81.706852 552.557387 95.028621 552.557387 111.409463 552.557387 127.888985 539.235617 141.210755 522.756095 141.210755zM762.251903 170.814686c-36.314156 0-65.720729-29.406572-65.720729-65.720729 0-36.314156 29.406572-65.720729 65.720729-65.720729 36.314156 0 65.720729 29.406572 65.720729 65.720729C827.972632 141.408114 798.56606 170.814686 762.251903 170.814686z" p-id="1500" fill="#515151"></path><path d="M93.696444 247.784909 93.696444 959.06871c0 35.722078 29.209213 64.93129 64.93129 64.93129l706.744531 0c35.722078 0 64.93129-29.209213 64.93129-64.93129L930.303556 247.784909 93.696444 247.784909zM515.059073 937.1618c-172.097523 0-311.729402-139.631878-311.729402-311.729402 0-172.097523 139.631878-311.729402 311.729402-311.729402 125.520671 0 233.673701 74.207189 283.112268 181.077383l-97.199576 0-3.256432 0c-40.754746-56.839549-107.363593-93.943143-182.656259-93.943143-124.040474 0-224.595162 100.554688-224.595162 224.595162 0 124.040474 100.554688 224.595162 224.595162 224.595162 75.588706 0 142.493592-37.399634 183.248338-94.732582l2.664354 0 97.495615 0C749.226173 862.658572 640.875783 937.1618 515.059073 937.1618zM489.106293 814.009444c-92.857666-12.631011-164.499181-92.265587-164.499181-188.675725 0-73.81247 41.938903-137.756963 103.317722-169.33449-18.650477 39.965308-29.505252 87.331599-29.505252 138.151682C398.518262 687.107256 434.733738 768.616749 489.106293 814.009444zM843.465356 723.026694 700.971764 723.026694c11.841573-65.326009 12.631011-130.750699 0-196.076708l142.493592 0C858.267322 590.3024 859.25412 655.628409 843.465356 723.026694z" p-id="1501" fill="#515151"></path></svg>