<?xml version="1.0" standalone="no"?><!DOCTYPE svg PUBLIC "-//W3C//DTD SVG 1.1//EN" "http://www.w3.org/Graphics/SVG/1.1/DTD/svg11.dtd"><svg class="icon" width="200px" height="200.00px" viewBox="0 0 1024 1024" version="1.1" xmlns="http://www.w3.org/2000/svg"><path d="M0 512c0 282.7776 229.2224 512 512 512s512-229.2224 512-512S794.7776 0 512 0 0 229.2224 0 512" fill="#2C8AF7" /><path d="M451.5072 381.696V665.6l204.8-148.9664-204.8-134.9632z m-46.5408 423.5264c-9.344 0-13.9776 0-18.6368-4.6592-13.952-9.2928-27.9296-23.2704-27.9296-41.856v-460.8c0-18.6368 9.3184-32.6144 23.2704-41.9072a42.368 42.368 0 0 1 46.5664 0l330.4704 214.0928c13.952 9.3184 18.6112 23.296 23.2704 37.248 0 13.952-4.6592 27.9296-18.6112 37.2224l-330.496 246.7072c-9.2928 9.2928-18.6112 13.952-27.904 13.952z" fill="#FFFFFF" /></svg>