<?xml version="1.0" standalone="no"?><!DOCTYPE svg PUBLIC "-//W3C//DTD SVG 1.1//EN" "http://www.w3.org/Graphics/SVG/1.1/DTD/svg11.dtd"><svg class="icon" width="200px" height="200.00px" viewBox="0 0 1024 1024" version="1.1" xmlns="http://www.w3.org/2000/svg"><path fill="#333333" d="M512 0C229.376 0 0 229.376 0 512c0 282.624 229.376 512 512 512 282.624 0 512-229.376 512-512 0-282.624-229.376-512-512-512zM290.645333 325.973333a29.764267 29.764267 0 0 1 40.96 0l162.747734 162.7136L657.066667 325.973333a29.764267 29.764267 0 0 1 40.96 0c10.922667 11.4688 10.922667 29.457067 0 40.96l-162.7136 162.7136 162.7136 162.747734c10.922667 11.4688 10.922667 29.4912 0 40.96a29.764267 29.764267 0 0 1-40.96 0l-162.7136-162.747734-162.747734 162.747734a29.764267 29.764267 0 0 1-40.96 0 29.764267 29.764267 0 0 1 0-40.96l162.747734-162.747734-162.747734-162.7136a29.764267 29.764267 0 0 1 0-40.96z"  /></svg>