<?xml version="1.0" standalone="no"?><!DOCTYPE svg PUBLIC "-//W3C//DTD SVG 1.1//EN" "http://www.w3.org/Graphics/SVG/1.1/DTD/svg11.dtd"><svg class="icon" width="200px" height="200.00px" viewBox="0 0 1024 1024" version="1.1" xmlns="http://www.w3.org/2000/svg"><path d="M27.153 508.079c0 266.932 216.392 483.324 483.331 483.324 266.932 0 483.323-216.393 483.323-483.324 0-266.938-216.392-483.331-483.323-483.331-266.939 0-483.331 216.393-483.331 483.331z m0 0" fill="#F7C767" /><path d="M719.924 580.574H518.535V314.748c-0.005-22.246-18.03-40.272-40.276-40.272-22.241 0-40.272 18.026-40.276 40.272v306.103c0 22.245 18.03 40.283 40.276 40.283h241.665c22.24-0.004 40.271-18.038 40.271-40.283 0-22.241-18.031-40.273-40.271-40.277z m0 0" fill="#FFFFFF" /></svg>