<?xml version="1.0" standalone="no"?><!DOCTYPE svg PUBLIC "-//W3C//DTD SVG 1.1//EN" "http://www.w3.org/Graphics/SVG/1.1/DTD/svg11.dtd"><svg class="icon" width="200px" height="200.00px" viewBox="0 0 1024 1024" version="1.1" xmlns="http://www.w3.org/2000/svg"><path d="M599.035684 579.755162h175.829665v303.705785h-175.829665zM774.865349 579.755162h-175.829665c0-46.674784 36.380756-84.845806 82.320252-87.723018 1.854204-0.127876 3.708407-0.191814 5.594581-0.191814 24.264494 0 46.259186 9.846461 62.179763 25.735069 15.888608 15.920577 25.735069 37.883301 25.735069 62.179763z" fill="#FF4893" /><path d="M681.355936 491.84033v0.191814c-45.939496 2.877213-82.320252 41.048235-82.320252 87.723018v396.415972h-358.053136v-396.415972c0-48.560957 39.353876-87.914833 87.914833-87.914832h352.458555z" fill="#5FCEFF" /><path d="M508.972533 221.957778h-0.073529a22.378321 22.378321 0 0 1 0.015985-44.756642h0.057544c28.471618 0 51.645968-23.145578 51.668346-51.617195 0.022378-28.506784-23.145578-51.7163-51.645968-51.741876h-0.04156a51.319884 51.319884 0 0 0-36.502238 15.114958 51.342262 51.342262 0 0 0-15.166108 36.53101 22.378321 22.378321 0 0 1-22.378321 22.362337h-0.015984a22.378321 22.378321 0 0 1-22.362337-22.394306c0.019181-25.754251 10.067048-49.9612 28.295789-68.164365 18.209559-18.187181 42.406918-28.203078 68.129199-28.203079h0.076726c53.180481 0.04156 96.409004 43.346808 96.370641 96.530486-0.044757 53.138922-43.295657 96.338672-96.428185 96.338672z" fill="#4F46A3" /><path d="M507.89198 316.458231h-0.015985a22.378321 22.378321 0 0 1-22.362336-22.394305l0.063938-94.468484a22.378321 22.378321 0 0 1 22.378321-22.362337h0.015984a22.378321 22.378321 0 0 1 22.365534 22.394306l-0.067135 94.468484a22.378321 22.378321 0 0 1-22.378321 22.362336z" fill="#4F46A3" /><path d="M981.650626 618.600731a22.244051 22.244051 0 0 1-12.004371-3.5102l-32.512503-20.712734-430.002635-273.763592-460.929475 293.804976a22.381518 22.381518 0 0 1-24.053498-37.745833l472.946633-301.464756a22.378321 22.378321 0 0 1 24.047104-0.006394l474.554675 302.142499a22.378321 22.378321 0 0 1-12.04593 41.256034z" fill="#4F46A3" /><path d="M55.562174 598.201292h-0.015984a22.378321 22.378321 0 0 1-22.362337-22.394305l0.063938-94.500453a22.378321 22.378321 0 0 1 22.378321-22.362336h0.015985a22.378321 22.378321 0 0 1 22.362336 22.394305l-0.063938 94.500453a22.378321 22.378321 0 0 1-22.378321 22.362336zM952.900877 596.570872h-0.015984a22.378321 22.378321 0 0 1-22.362337-22.394306l0.063938-94.468483a22.378321 22.378321 0 0 1 22.378321-22.365534h0.015985a22.378321 22.378321 0 0 1 22.362336 22.391109l-0.063938 94.471681a22.378321 22.378321 0 0 1-22.378321 22.365533zM681.355936 514.218651h-346.863975a22.378321 22.378321 0 1 1 0-44.756642h346.863975a22.378321 22.378321 0 1 1 0 44.756642z" fill="#4F46A3" /><path d="M599.035684 998.552652a22.378321 22.378321 0 0 1-22.378321-22.378321v-396.415972c0-58.087728 45.373644-106.431295 103.301527-110.059779a102.630177 102.630177 0 0 1 6.994824-0.236571c29.437083 0 57.131854 11.460897 77.988448 32.272735 20.847004 20.885367 32.304705 48.580138 32.304705 78.020418v303.705785a22.378321 22.378321 0 1 1-44.756642 0v-303.705785a65.220018 65.220018 0 0 0-19.197402-46.371078 65.194443 65.194443 0 0 0-50.392782-19.031163c-34.542537 2.164303-61.482839 30.88528-61.482839 65.399044v396.415972a22.384715 22.384715 0 0 1-22.381518 22.384715z" fill="#4F46A3" /><path d="M599.035684 998.552652h-354.856233a22.378321 22.378321 0 1 1 0-44.756642h354.856233a22.378321 22.378321 0 1 1 0 44.756642zM774.865349 905.842465h-175.829665a22.378321 22.378321 0 1 1 0-44.756642h175.829665a22.378321 22.378321 0 1 1 0 44.756642z" fill="#4F46A3" /><path d="M240.982548 998.552652a22.378321 22.378321 0 0 1-22.378321-22.378321v-396.415972c0-60.814686 49.478468-110.293154 110.293154-110.293153a22.378321 22.378321 0 1 1 0 44.756642c-36.137792 0-65.536512 29.401917-65.536512 65.536511v396.415972a22.378321 22.378321 0 0 1-22.378321 22.378321zM946.443133 602.13668H599.035684a22.378321 22.378321 0 1 1 0-44.756642h347.407449a22.378321 22.378321 0 1 1 0 44.756642z" fill="#4F46A3" /><path d="M240.982548 602.13668H56.553214a22.378321 22.378321 0 1 1 0-44.756642h184.429334a22.378321 22.378321 0 1 1 0 44.756642z" fill="#4F46A3" /></svg>